<?xml version="1.0" encoding="UTF-8" standalone="no"?>
<!-- The WorldDynamics.jl logo was created by Paulo Bruno Serafim (2022) -->
<!-- WorldDynamics.jl is an open-source framework for world dynamics modeling and simulation -->
<!-- https://natema.github.io/WorldDynamics.jl/ -->
<!-- Copyright (c) 2022 Emanuele Natale, Pierluigi Crescenzi, Paulo Bruno Serafim -->
<svg
    xmlns="http://www.w3.org/2000/svg"
    width="72"
    height="72"
    viewBox="0 0 72 72">
    <g id="WorldDynamicsLogo">
        <path
            id="green_path"
            fill="#389826"
            d="m 36,0 a 36,36 0 0 0 -18.68826,5.25549 c 2.99404,3.27508 5.7205,8.02043 8.08064,14.85594 0.2747,-0.57168 0.54892,-1.13151 0.82372,-1.66294 0.88168,-1.70506 1.75002,-3.19499 2.88458,-4.44521 1.13456,-1.25021 2.8425,-2.4374 4.93355,-2.31045 1.64854,0.10008 3.17279,0.9447 4.18941,1.9513 1.01663,1.0066 1.7005,2.13625 2.38073,3.3476 1.36047,2.42272 2.66936,5.27755 4.84208,8.388626 3.99907,5.72618 10.80092,12.41549 25.91729,17.26717 a 36,36 0 0 0 0.63613,-6.64766 36,36 0 0 0 -35.99987,-35.999866 z" />
        <path
            id="red_path"
            fill="#cb3c33"
            d="m 12.42405,8.82685 a 36,36 0 0 0 -12.42405,27.173016 36,36 0 0 0 2.46187,13.02815 c 8.49451,-1.58536 13.95747,-9.85305 18.15445,-18.51515 0.34426,-0.71052 0.67563,-1.41793 1.00148,-2.12235 -2.75925,-10.556756 -6.05714,-16.360106 -9.19375,-19.563666 z" />
        <path
            id="purple_path"
            fill="#9558b2"
            d="m 33.8274,17.7431 c -0.0601,0.056 -0.14825,0.14219 -0.28371,0.29146 -0.49657,0.5472 -1.22779,1.6807 -1.99781,3.16983 -1.06089,2.05162 -2.24527,4.785156 -3.59668,7.770586 1.56245,6.37761 2.43381,11.44726 3.39928,15.22956 1.02919,4.03195 2.09319,6.40415 3.93567,8.04705 1.84248,1.64291 4.89174,2.89001 10.5761,3.65818 4.65482,0.62904 10.99336,0.91295 19.41536,0.99219 a 36,36 0 0 0 4.49739,-8.47029 c -16.34831,-5.23726 -24.60726,-12.97261 -29.24679,-19.61586 -2.50778,-3.59082 -3.99935,-6.833916 -5.15214,-8.886786 -0.57639,-1.02644 -1.077,-1.72847 -1.37304,-2.02159 -0.1109,-0.10979 -0.13888,-0.13426 -0.17363,-0.16433 z" />
        <path
            id="blue_path"
            fill="#4063d8"
            d="m 23.735,37.548096 c -4.07866,7.39548 -9.73611,14.69322 -18.57303,17.01653 a 36,36 0 0 0 30.83791,17.43511 36,36 0 0 0 23.9758,-9.17463 c -6.02629,-0.13742 -10.90334,-0.42744 -14.91795,-0.96997 -6.24686,-0.84418 -10.62372,-2.32581 -13.76557,-5.12733 -3.14185,-2.80152 -4.62081,-6.59099 -5.75624,-11.03912 -0.61804,-2.42127 -1.16193,-5.11422 -1.80092,-8.14059 z" />
    </g>
</svg>
